<?xml version="1.0" encoding="utf-8"?>
<!-- Generator: Adobe Illustrator 19.1.0, SVG Export Plug-In . SVG Version: 6.00 Build 0)  -->
<svg version="1.1" id="Layer_1" xmlns="http://www.w3.org/2000/svg" xmlns:xlink="http://www.w3.org/1999/xlink" x="0px" y="0px"
	 viewBox="7.4 14.7 60 40.1" style="enable-background:new 7.4 14.7 60 40.1;" xml:space="preserve">
<style type="text/css">
	.st0{fill:#999999;}
	.st1{fill:#55B6D0;}
</style>
<g>
	<path class="st0" d="M66.5,27.9c-1.2-1.5-3.4-1.7-5-0.6L46.7,38c0.1-0.3,0.1-0.6,0.1-1c0.1-2.2-1.4-4-3.6-4.5l-12-2.5
		c-3.9-0.8-7.9,0.1-11,2.6l-11.3,9c-0.9,0.7-1.4,1.7-1.5,2.9c-0.1,1.1,0.4,2.2,1.1,3l6.2,6.2c0.7,0.7,1.7,1.1,2.8,1.1s2-0.4,2.8-1.1
		l1.2-1.2c1.3-1.3,3-2.1,4.9-2.3l19.1-2c2.1-0.2,4.1-1.1,5.8-2.5L66.1,33C67.6,31.7,67.8,29.4,66.5,27.9z M64.6,31.3L49.8,44
		c-1.3,1.1-2.8,1.8-4.5,1.9l-19.1,2c-2.3,0.2-4.6,1.3-6.2,3l-1.2,1.2c-0.6,0.6-1.7,0.6-2.3,0l-6.1-6.2c-0.3-0.3-0.5-0.8-0.5-1.3
		s0.3-0.9,0.6-1.2l11.4-8.9c2.6-2,5.9-2.8,9.1-2.2l12,2.5c1,0.2,1.8,1.1,1.7,2.2c0,1.2-1,2.1-2.1,2.1H30.7c-0.6,0-1.1,0.5-1.1,1.2
		s0.5,1.2,1.1,1.2l0,0l14.1-0.1c0.9,0,1.8-0.3,2.6-0.9l15.8-11.4c0.6-0.4,1.4-0.3,1.8,0.2C65.2,29.9,65.2,30.8,64.6,31.3z"/>
	<path class="st1" d="M30.3,27.5c2.7,0,4.9-1.8,5.4-4.5h27.6c0.6,0,1.1-0.4,1.1-1s-0.5-1-1.1-1h-0.9v-5.2c0-0.6-0.5-1.1-1.2-1.1
		S60,15.2,60,15.8V21h-3.2v-3.4c0-0.6-0.4-1.1-1-1.1s-1,0.5-1,1.1V21H35.7c-0.5-2.6-2.8-4.4-5.4-4.4c-3.1,0-5.6,2.4-5.6,5.5
		C24.7,25.1,27.2,27.5,30.3,27.5z M30.3,18.8c1.8,0,3.2,1.5,3.2,3.2s-1.5,3.2-3.2,3.2c-1.8,0-3.2-1.5-3.2-3.2S28.5,18.8,30.3,18.8z"
		/>
</g>
</svg>
