<?xml version="1.0" encoding="utf-8"?>
<!-- Generator: Adobe Illustrator 19.1.0, SVG Export Plug-In . SVG Version: 6.00 Build 0)  -->
<svg version="1.1" id="Layer_1" xmlns="http://www.w3.org/2000/svg" xmlns:xlink="http://www.w3.org/1999/xlink" x="0px" y="0px"
	 viewBox="13 15 52.1 52.1" style="enable-background:new 13 15 52.1 52.1;" xml:space="preserve">
<style type="text/css">
	.st0{fill:#999999;}
	.st1{fill:#55B6D0;}
</style>
<g transform="translate(0,-952.36218)">
	<path class="st0" d="M14.1,967.4c-0.6,0.1-1.1,0.6-1.1,1.3v21.6c0,0.7,0.6,1.3,1.3,1.3h21.6c0.7,0,1.3-0.6,1.3-1.3v-21.6
		c0-0.7-0.6-1.3-1.3-1.3H14.3C14.2,967.4,14.2,967.4,14.1,967.4z M42.2,967.4c-0.7,0-1.3,0.6-1.3,1.3v21.6c0,0.7,0.6,1.3,1.3,1.3
		h21.6c0.7,0,1.3-0.6,1.3-1.3v-21.6c0-0.7-0.5-1.2-1.1-1.3h-0.1H42.2z M15.5,969.9h19v19h-19V969.9z M43.4,969.9h19v19h-19V969.9z
		 M14.3,995.3c-0.7,0-1.3,0.6-1.3,1.3v21.6c0,0.7,0.6,1.3,1.3,1.3h21.6c0.7,0,1.3-0.6,1.3-1.3v-21.6c0-0.7-0.6-1.3-1.3-1.3H14.3z
		 M15.5,997.8h19v19h-19V997.8z"/>
</g>
<path class="st1" d="M42.2,42.9c-0.7,0-1.3,0.6-1.3,1.3v21.6c0,0.7,0.6,1.3,1.3,1.3h21.6c0.7,0,1.3-0.6,1.3-1.3V44.2
	c0-0.7-0.6-1.3-1.3-1.3H42.2z"/>
</svg>
