<?xml version="1.0" encoding="utf-8"?>
<!-- Generator: Adobe Illustrator 19.1.0, SVG Export Plug-In . SVG Version: 6.00 Build 0)  -->
<svg version="1.1" id="Layer_1" xmlns="http://www.w3.org/2000/svg" xmlns:xlink="http://www.w3.org/1999/xlink" x="0px" y="0px"
	 viewBox="7.1 19.5 85.8 45.4" style="enable-background:new 7.1 19.5 85.8 45.4;" xml:space="preserve">
<style type="text/css">
	.st0{fill:none;stroke:#55B6D0;stroke-width:2.505;stroke-linecap:round;stroke-linejoin:round;stroke-miterlimit:10;}
	.st1{fill:none;stroke:#999999;stroke-width:2.505;stroke-linecap:round;stroke-linejoin:round;stroke-miterlimit:10;}
</style>
<g>
	<path class="st0" d="M67.5,63.7H32.3c-1.2,0-2.1-0.9-2.1-2.1v-6.9c0-1.4,0.8-3.3,6.9-7.2c1.7-1,3.4-2,4.9-2.8
		c-1.7-1.9-2.6-4.3-2.6-6.9v-6.3c0-5.9,4.8-10.7,10.7-10.7s10.8,4.8,10.8,10.7v6.3c0,2.7-1,5.2-2.8,7.2c4.3,2.3,11.4,6.6,11.4,9.9
		v6.8C69.6,62.7,68.7,63.7,67.5,63.7z"/>
	<path class="st1" d="M33.9,43.7c-1-0.6-1.8-1.1-2.4-1.5c1.7-2.4,2.8-5.6,2.8-8.9c0-6.1-3.9-10.6-9.4-10.6s-9.4,4.4-9.4,10.6
		c0,3.2,1,6.3,2.6,8.6c-1.3,0.8-3.3,1.9-6,3.7c-2.3,1.5-3.7,4.2-3.7,7v2c-0.1,2,1.3,3.4,3.1,3.4h13.6v-4.9
		C25.1,49.5,30,46,33.9,43.7z"/>
	<path class="st1" d="M91.7,52.3c-0.2-3.1-2.2-5.8-5.2-7.1l-0.2-0.1c0.3-0.2,0.6-0.4,0.8-0.8c0.4-0.7,0.4-1.4,0.1-2.1
		c0,0-1.3-2.7-1.6-5.3l-0.2-4.4c0-5.3-4.3-9.8-9.4-9.9h-0.1c-5.2,0.1-9.4,4.5-9.4,9.9L66.3,37c-0.3,2.6-1.6,5.3-1.6,5.3
		c-0.1,0.2-0.1,0.3-0.2,0.4C68.4,44.9,74.8,49,74.8,53v4.9h13.7c1.8,0,3.2-1.5,3.2-3.3v-1.9C91.7,52.7,91.7,52.5,91.7,52.3z"/>
</g>
</svg>
