<?xml version="1.0" encoding="utf-8"?>
<!-- Generator: Adobe Illustrator 19.1.0, SVG Export Plug-In . SVG Version: 6.00 Build 0)  -->
<svg version="1.1" id="Layer_1" xmlns="http://www.w3.org/2000/svg" xmlns:xlink="http://www.w3.org/1999/xlink" x="0px" y="0px"
	 viewBox="15.5 14.7 49 49.2" style="enable-background:new 15.5 14.7 49 49.2;" xml:space="preserve">
<style type="text/css">
	.st0{fill:#999999;}
	.st1{fill:#55B6D0;}
	.st2{fill:#FFFFFF;}
</style>
<g transform="translate(0,-1036.3622)">
	<g transform="translate(628,-140.49998)">
		<g transform="translate(-599.5,50.350676)">
			<g transform="translate(-29.5,89.649313)">
				<g transform="translate(1.5,-1.5000527)">
					<g transform="translate(127.5,-148.00021)">
						<path class="st0" d="M-111,1201.2c-0.8,0-1.5,0.7-1.5,1.5v36.8c0,0.8,0.7,1.5,1.5,1.5h17.5c-0.3-1-0.5-2-0.6-3.1h-15.3v-27.6
							h33.7v9.2c1.1,0.1,2.1,0.3,3.1,0.6v-17.5c0-0.8-0.7-1.5-1.5-1.5L-111,1201.2L-111,1201.2z M-109.4,1204.3h33.7v3.1h-33.7
							C-109.4,1207.4-109.4,1204.3-109.4,1204.3z M-106.4,1213.4v3.1h3.1v-3.1H-106.4z M-100.2,1213.4v3.1h3.1v-3.1H-100.2z
							 M-94.1,1213.4v3.1h3.1v-3.1H-94.1z M-88,1213.4v3.1h3.1v-3.1H-88z M-81.8,1213.4v3.1h3.1v-3.1H-81.8z M-106.4,1219.6v3.1h3.1
							v-3.1H-106.4z M-100.2,1219.6v3.1h3.1v-3.1H-100.2z M-94.1,1219.6v3.1h3.1v-3.1H-94.1z M-88,1219.6v3.1h1.6
							c0.5-0.3,0.9-0.7,1.5-1v-2.1H-88z M-106.4,1225.7v3.1h3.1v-3.1H-106.4z M-100.2,1225.7v3.1h3.1v-3.1H-100.2z M-94.1,1225.7
							v3.1h2.1c0.3-0.5,0.7-1,1-1.5v-1.6H-94.1z M-106.4,1231.8v3.1h3.1v-3.1H-106.4z M-100.2,1231.8v3.1h3.1v-3.1H-100.2z"/>
					</g>
				</g>
			</g>
		</g>
	</g>
</g>
<path class="st1" d="M50.7,36.3c-7.6,0-13.8,6.2-13.8,13.8s6.2,13.8,13.8,13.8S64.5,57.6,64.5,50S58.3,36.3,50.7,36.3z"/>
<path class="st2" d="M50.7,38.8C57,38.8,62,43.8,62,50s-5,11.3-11.3,11.3s-11.3-5-11.3-11.3C39.4,43.8,44.5,38.8,50.7,38.8z"/>
<path class="st1" d="M50.7,42.4c-0.8,0-1.5,0.7-1.5,1.5l0,0V50c0,0.8,0.7,1.5,1.5,1.5h5.5c0.8,0,1.5-0.7,1.6-1.5
	c0-0.8-0.7-1.5-1.5-1.6l0,0h-3.9v-4.6C52.3,43.1,51.6,42.4,50.7,42.4L50.7,42.4z"/>
</svg>
